<svg width="28" height="37" viewBox="0 0 28 37" fill="none" xmlns="http://www.w3.org/2000/svg">
<path d="M12.3943 23.4748L9.40708 36.1206C6.69878 36.2799 5.49049 33.5981 5.22487 32.2373L4.92615 28.5531C5.64308 26.6413 2.50329 21.3838 0.843775 18.994C-1.06803 14.0552 0.711011 8.63841 1.83951 6.54737C5.42415 0.493321 12.6266 -0.289989 15.7798 0.0751129C20.8779 0.314089 25.0069 5.3525 26.4341 7.84183C27.3104 9.19602 27.5294 13.3847 27.5294 15.3098C27.2904 18.2572 25.4384 21.5166 24.5422 22.7778C23.188 24.2913 22.6503 26.8603 22.5507 27.9556C22.5507 27.9556 22.451 31.0669 22.2519 32.0626C22.0528 33.0583 20.9575 34.3772 19.4639 35.2489C17.9703 36.1206 15.481 36.1206 15.481 36.1206L18.8665 18.6953H15.481L17.2734 7.84183L8.2122 23.4748H12.3943Z" fill="#88F0E5"/>
</svg>
